<?xml version="1.0" encoding="UTF-8"?>
<svg xmlns="http://www.w3.org/2000/svg" width="231" height="52" viewBox="0 0 231 52" fill="none">
  <path d="M82.244 29.182C80.528 29.182 78.9507 28.7833 77.512 27.986C76.0907 27.1887 74.9553 26.0793 74.106 24.658C73.274 23.2193 72.858 21.6073 72.858 19.822C72.858 18.0367 73.274 16.4333 74.106 15.012C74.9553 13.5907 76.0907 12.4813 77.512 11.684C78.9507 10.8867 80.528 10.488 82.244 10.488C83.96 10.488 85.5287 10.8867 86.95 11.684C88.3887 12.4813 89.5153 13.5907 90.33 15.012C91.162 16.4333 91.578 18.0367 91.578 19.822C91.578 21.6073 91.162 23.2193 90.33 24.658C89.498 26.0793 88.3713 27.1887 86.95 27.986C85.5287 28.7833 83.96 29.182 82.244 29.182ZM82.244 25.126C83.7 25.126 84.8613 24.6407 85.728 23.67C86.612 22.6993 87.054 21.4167 87.054 19.822C87.054 18.21 86.612 16.9273 85.728 15.974C84.8613 15.0033 83.7 14.518 82.244 14.518C80.7707 14.518 79.592 14.9947 78.708 15.948C77.8413 16.9013 77.408 18.1927 77.408 19.822C77.408 21.434 77.8413 22.7253 78.708 23.696C79.592 24.6493 80.7707 25.126 82.244 25.126ZM111.185 10.748L104.711 29H99.1475L92.6735 10.748H97.4055L101.929 24.528L106.479 10.748H111.185ZM124.484 10.748V23.176C124.484 25.1 123.938 26.582 122.846 27.622C121.771 28.662 120.315 29.182 118.478 29.182C116.554 29.182 115.011 28.636 113.85 27.544C112.688 26.452 112.108 24.9007 112.108 22.89H116.528C116.528 23.6527 116.684 24.2333 116.996 24.632C117.308 25.0133 117.758 25.204 118.348 25.204C118.885 25.204 119.301 25.0307 119.596 24.684C119.89 24.3373 120.038 23.8347 120.038 23.176V10.748H124.484ZM132.521 10.748V29H128.075V10.748H132.521ZM152.071 29H147.625L140.189 17.742V29H135.743V10.748H140.189L147.625 22.058V10.748H152.071V29ZM173.933 10.748V14.31H169.097V29H164.651V14.31H159.815V10.748H173.933ZM184.797 29.182C183.081 29.182 181.503 28.7833 180.065 27.986C178.643 27.1887 177.508 26.0793 176.659 24.658C175.827 23.2193 175.411 21.6073 175.411 19.822C175.411 18.0367 175.827 16.4333 176.659 15.012C177.508 13.5907 178.643 12.4813 180.065 11.684C181.503 10.8867 183.081 10.488 184.797 10.488C186.513 10.488 188.081 10.8867 189.503 11.684C190.941 12.4813 192.068 13.5907 192.883 15.012C193.715 16.4333 194.131 18.0367 194.131 19.822C194.131 21.6073 193.715 23.2193 192.883 24.658C192.051 26.0793 190.924 27.1887 189.503 27.986C188.081 28.7833 186.513 29.182 184.797 29.182ZM184.797 25.126C186.253 25.126 187.414 24.6407 188.281 23.67C189.165 22.6993 189.607 21.4167 189.607 19.822C189.607 18.21 189.165 16.9273 188.281 15.974C187.414 15.0033 186.253 14.518 184.797 14.518C183.323 14.518 182.145 14.9947 181.261 15.948C180.394 16.9013 179.961 18.1927 179.961 19.822C179.961 21.434 180.394 22.7253 181.261 23.696C182.145 24.6493 183.323 25.126 184.797 25.126ZM200.972 10.748V21.668C200.972 22.76 201.241 23.6007 201.778 24.19C202.316 24.7793 203.104 25.074 204.144 25.074C205.184 25.074 205.982 24.7793 206.536 24.19C207.091 23.6007 207.368 22.76 207.368 21.668V10.748H211.814V21.642C211.814 23.2713 211.468 24.6493 210.774 25.776C210.081 26.9027 209.145 27.752 207.966 28.324C206.805 28.896 205.505 29.182 204.066 29.182C202.628 29.182 201.336 28.9047 200.192 28.35C199.066 27.778 198.173 26.9287 197.514 25.802C196.856 24.658 196.526 23.2713 196.526 21.642V10.748H200.972ZM224.244 29L220.448 22.11H219.382V29H214.936V10.748H222.398C223.837 10.748 225.059 10.9993 226.064 11.502C227.087 12.0047 227.85 12.698 228.352 13.582C228.855 14.4487 229.106 15.4193 229.106 16.494C229.106 17.7073 228.76 18.7907 228.066 19.744C227.39 20.6973 226.385 21.3733 225.05 21.772L229.262 29H224.244ZM219.382 18.964H222.138C222.953 18.964 223.56 18.7647 223.958 18.366C224.374 17.9673 224.582 17.404 224.582 16.676C224.582 15.9827 224.374 15.4367 223.958 15.038C223.56 14.6393 222.953 14.44 222.138 14.44H219.382V18.964Z" fill="white"></path>
  <path d="M110.347 37.6385V39.2825H108.115V46.0625H106.063V39.2825H103.831V37.6385H110.347ZM115.673 46.0625L113.921 42.8825H113.429V46.0625H111.377V37.6385H114.821C115.485 37.6385 116.049 37.7545 116.513 37.9865C116.985 38.2185 117.337 38.5385 117.569 38.9465C117.801 39.3465 117.917 39.7945 117.917 40.2905C117.917 40.8505 117.757 41.3505 117.437 41.7905C117.125 42.2305 116.661 42.5425 116.045 42.7265L117.989 46.0625H115.673ZM113.429 41.4305H114.701C115.077 41.4305 115.357 41.3385 115.541 41.1545C115.733 40.9705 115.829 40.7105 115.829 40.3745C115.829 40.0545 115.733 39.8025 115.541 39.6185C115.357 39.4345 115.077 39.3425 114.701 39.3425H113.429V41.4305ZM124.449 44.5745H121.305L120.801 46.0625H118.653L121.701 37.6385H124.077L127.125 46.0625H124.953L124.449 44.5745ZM123.921 42.9905L122.877 39.9065L121.845 42.9905H123.921ZM135.961 37.6385L132.973 46.0625H130.405L127.417 37.6385H129.601L131.689 43.9985L133.789 37.6385H135.961ZM138.87 39.2825V40.9865H141.618V42.5705H138.87V44.4185H141.978V46.0625H136.818V37.6385H141.978V39.2825H138.87ZM145.362 44.4785H148.05V46.0625H143.31V37.6385H145.362V44.4785ZM156.816 44.5745H153.672L153.168 46.0625H151.02L154.068 37.6385H156.444L159.492 46.0625H157.32L156.816 44.5745ZM156.288 42.9905L155.244 39.9065L154.212 42.9905H156.288ZM166.012 40.3025C165.86 40.0225 165.64 39.8105 165.352 39.6665C165.072 39.5145 164.74 39.4385 164.356 39.4385C163.692 39.4385 163.16 39.6585 162.76 40.0985C162.36 40.5305 162.16 41.1105 162.16 41.8385C162.16 42.6145 162.368 43.2225 162.784 43.6625C163.208 44.0945 163.788 44.3105 164.524 44.3105C165.028 44.3105 165.452 44.1825 165.796 43.9265C166.148 43.6705 166.404 43.3025 166.564 42.8225H163.96V41.3105H168.424V43.2185C168.272 43.7305 168.012 44.2065 167.644 44.6465C167.284 45.0865 166.824 45.4425 166.264 45.7145C165.704 45.9865 165.072 46.1225 164.368 46.1225C163.536 46.1225 162.792 45.9425 162.136 45.5825C161.488 45.2145 160.98 44.7065 160.612 44.0585C160.252 43.4105 160.072 42.6705 160.072 41.8385C160.072 41.0065 160.252 40.2665 160.612 39.6185C160.98 38.9625 161.488 38.4545 162.136 38.0945C162.784 37.7265 163.524 37.5425 164.356 37.5425C165.364 37.5425 166.212 37.7865 166.9 38.2745C167.596 38.7625 168.056 39.4385 168.28 40.3025H166.012ZM171.612 39.2825V40.9865H174.36V42.5705H171.612V44.4185H174.72V46.0625H169.56V37.6385H174.72V39.2825H171.612ZM183.589 46.0625H181.537L178.105 40.8665V46.0625H176.053V37.6385H178.105L181.537 42.8585V37.6385H183.589V46.0625ZM184.728 41.8385C184.728 41.0065 184.908 40.2665 185.268 39.6185C185.628 38.9625 186.128 38.4545 186.768 38.0945C187.416 37.7265 188.148 37.5425 188.964 37.5425C189.964 37.5425 190.82 37.8065 191.532 38.3345C192.244 38.8625 192.72 39.5825 192.96 40.4945H190.704C190.536 40.1425 190.296 39.8745 189.984 39.6905C189.68 39.5065 189.332 39.4145 188.94 39.4145C188.308 39.4145 187.796 39.6345 187.404 40.0745C187.012 40.5145 186.816 41.1025 186.816 41.8385C186.816 42.5745 187.012 43.1625 187.404 43.6025C187.796 44.0425 188.308 44.2625 188.94 44.2625C189.332 44.2625 189.68 44.1705 189.984 43.9865C190.296 43.8025 190.536 43.5345 190.704 43.1825H192.96C192.72 44.0945 192.244 44.8145 191.532 45.3425C190.82 45.8625 189.964 46.1225 188.964 46.1225C188.148 46.1225 187.416 45.9425 186.768 45.5825C186.128 45.2145 185.628 44.7065 185.268 44.0585C184.908 43.4105 184.728 42.6705 184.728 41.8385ZM201.441 37.6385L198.525 43.2785V46.0625H196.473V43.2785L193.557 37.6385H195.885L197.517 41.1665L199.137 37.6385H201.441Z" fill="white"></path>
  <path d="M42.9391 28.7495C41.3831 29.3638 39.8763 30.0903 38.3382 30.754C35.1902 32.1127 31.8763 32.9737 28.7103 34.2473C25.5444 35.5208 21.1722 34.3908 18.0645 33.8796C15.8538 33.5163 13.6699 33.0051 11.5309 32.3325C9.6609 31.745 7.30214 31.4042 5.625 30.3504C7.1407 27.5522 9.35596 24.9333 11.1945 22.3279C13.0331 19.7226 14.9076 17.1396 16.8538 14.6149C18.0421 13.0723 18.1811 12.9154 19.7372 14.1351C20.4681 14.7091 21.1901 15.2921 21.9255 15.866C22.4951 16.31 23.3695 17.3459 23.9794 16.5432C24.4637 15.9109 24.939 15.2696 25.4009 14.6194C26.1677 13.5477 26.9121 12.4625 27.652 11.3728C27.9794 10.8929 28.3875 10.4624 28.7597 10.0275C29.5489 9.09024 30.4547 9.4445 31.2081 10.1485C31.7283 10.6373 32.1947 11.171 32.6745 11.7046C33.7373 12.884 34.809 14.0589 35.8942 15.2203C36.6117 15.9871 37.3247 16.7495 38.0602 17.4983C38.5624 18.0095 39.0736 18.5163 39.6028 19.0006C40.1947 19.5387 40.7328 20.2696 41.4189 19.467C42.2889 18.449 43.1185 17.3907 43.966 16.3504C44.7732 15.3638 45.5041 14.0051 46.7598 15.31C49.41 18.0678 52.3921 20.6329 55.2531 23.1531C56.4683 24.2248 57.7419 25.2697 58.9975 26.3011C59.3293 26.5746 60.0065 27.3818 60.4101 27.3907C57.5849 27.3235 54.7598 27.2517 51.9347 27.1845C48.7239 27.1037 45.9167 27.5701 42.9391 28.745V28.7495ZM35.8359 19.0051C35.8628 19.014 35.8853 19.023 35.9122 19.032C35.966 19.0499 36.6028 19.1979 36.6072 19.2024C35.8225 18.1934 34.8494 17.3055 34.0018 16.3459L31.4144 13.4176C31.2888 13.2741 29.652 11.3728 29.4772 11.4938C29.4458 11.5163 29.4099 11.5432 29.3785 11.5656C29.4637 11.9692 29.5534 12.3772 29.6476 12.8077C29.3157 12.884 29.0377 12.9512 28.7148 13.0275C28.791 13.4086 28.8628 13.7539 28.9435 14.1396C28.5713 14.0768 28.2978 14.032 28.0242 13.9826C27.9794 14.0364 27.939 14.0858 27.8942 14.1396C28.365 14.8481 28.8359 15.5611 29.3067 16.2651C28.8045 16.4042 28.3112 16.5387 27.6431 16.7181C28.3157 17.3548 28.8224 17.8436 29.3964 18.3862C28.8942 18.5163 28.531 18.606 28.087 18.7226C28.2933 18.9513 28.4996 19.1755 28.7058 19.4042C28.9435 19.6643 29.0422 19.6732 28.8897 19.9692C28.6476 20.4445 28.0018 20.9109 27.6341 21.301C27.6027 21.3324 27.5713 21.3683 27.5623 21.4131C27.5354 21.5297 27.6745 21.6105 27.7866 21.6553C29.2933 22.2248 30.7686 22.9064 32.1453 23.7405C33.7552 24.7181 35.5489 25.3145 37.2081 26.1845C37.5759 26.3773 37.9615 26.5522 38.3203 26.7674C38.5176 26.884 39.7104 27.3773 39.7149 27.597C39.67 25.9961 39.1229 24.8302 37.7149 24.0544C37.1633 23.7495 36.67 23.3549 36.2081 22.9288C35.4458 22.2248 36.6521 22.2876 37.1543 22.3324C38.0781 22.4087 39.0871 22.7181 39.9122 23.1351C39.7238 23.041 39.4503 22.3235 39.3068 22.1262C39.0781 21.8212 38.8404 21.5118 38.4996 21.3549C37.67 20.9692 36.7463 20.9557 35.9436 20.4804C34.8359 19.8257 33.7059 19.3997 32.9884 18.2517C33.6565 18.3907 34.3202 18.5656 34.9749 18.7539C35.2619 18.8391 35.5534 18.9199 35.8404 19.014L35.8359 19.0051ZM19.0601 21.0454C19.2529 21.4176 18.9793 21.8526 18.7237 22.1845C19.208 22.328 19.6834 21.9692 20.1767 21.8616C20.6924 21.7495 21.2574 21.9468 21.5982 22.3459C21.8897 22.6912 22.0332 23.1889 22.4368 23.4042C22.6655 23.1306 22.8134 22.7943 22.8583 22.4401C23.2484 22.5522 23.5309 22.8795 23.8403 23.1396C24.3112 23.5387 24.939 23.8392 25.5534 23.9109C26.1677 23.9827 26.6251 24.1755 27.2215 24.4176C26.3695 23.3997 25.4816 22.4042 24.5713 21.4535C23.6206 20.4535 22.661 19.458 21.7417 18.4311C21.2215 17.8436 20.6924 17.2652 20.1587 16.6912C19.8941 16.4042 19.6251 16.1172 19.356 15.8302C19.2305 15.6956 18.5399 15.1396 18.5444 14.9782C18.513 15.8795 18.6296 16.7808 18.7462 17.6777C18.8179 18.2472 18.8941 18.8167 18.9659 19.3862C18.9928 19.606 19.0511 19.8347 19.0242 20.0499C18.9883 20.31 18.8 20.5252 18.9121 20.7988C18.9479 20.8885 19.0152 20.9647 19.0601 21.0499V21.0454ZM46.0333 16.3817C45.8405 17.1979 45.6746 17.8571 45.54 18.5208C45.5221 18.6239 45.6476 18.7898 45.7508 18.8705C47.3427 20.1575 48.9391 21.4311 50.6566 22.8078C50.8001 22.3324 50.9571 21.8302 51.1051 21.3459C50.706 21.1889 50.3921 21.1575 50.2172 20.9827C49.4459 20.2203 48.7104 19.4221 47.966 18.6329C47.7822 18.44 47.6387 18.2069 47.4414 18.023C47.2082 17.8033 46.9077 17.6463 46.697 17.4042C46.4683 17.1441 46.3158 16.8257 46.0288 16.3773L46.0333 16.3817ZM51.7194 22.1889L51.4997 22.3773C51.8181 24.0141 52.7777 25.1127 53.7329 24.884C53.0513 23.9737 52.3831 23.0813 51.7149 22.1934L51.7194 22.1889Z" fill="#E06E26"></path>
  <path d="M67.804 28.6959C67.8802 29.382 67.0372 28.9918 66.6336 28.9515C64.1448 28.7048 61.3466 28.0367 58.8577 27.947C40.8756 27.2833 29.5302 42.7363 9.66016 36.1757C4.90677 34.6062 -0.985644 30.3506 0.139923 24.6689C8.36867 34.4403 22.4764 35.243 33.9832 31.6331C37.8352 30.4223 41.4092 28.3371 45.3016 27.225C52.7546 25.0994 60.6694 25.6869 67.7995 28.7003L67.804 28.6959Z" fill="#0D90B7"></path>
  <path d="M69.9902 32.2872C70.0754 32.9419 69.1651 32.6415 68.757 32.6056C61.7032 31.9419 56.6045 31.4576 49.5955 33.2827C41.7345 35.3321 34.0169 40.3141 25.7344 39.5922L33.6044 37.4083C45.304 32.2738 57.2099 26.8208 69.9902 32.2872Z" fill="#0D90B7"></path>
</svg>
