<svg xmlns="http://www.w3.org/2000/svg" width="512" height="512" viewBox="0 0 512 512">
  <rect width="512" height="512" rx="80" fill="#1a56db"/>
  <g transform="translate(60, 120) scale(5.6)">
    <path d="M42.9391 28.7495C41.3831 29.3638 39.8763 30.0903 38.3382 30.754C35.1902 32.1127 31.8763 32.9737 28.7103 34.2473C25.5444 35.5208 21.1722 34.3908 18.0645 33.8796C15.8538 33.5163 13.6699 33.0051 11.5309 32.3325C9.6609 31.745 7.30214 31.4042 5.625 30.3504C7.1407 27.5522 9.35596 24.9333 11.1945 22.3279C13.0331 19.7226 14.9076 17.1396 16.8538 14.6149C18.0421 13.0723 18.1811 12.9154 19.7372 14.1351C20.4681 14.7091 21.1901 15.2921 21.9255 15.866C22.4951 16.31 23.3695 17.3459 23.9794 16.5432C24.4637 15.9109 24.939 15.2696 25.4009 14.6194C26.1677 13.5477 26.9121 12.4625 27.652 11.3728C27.9794 10.8929 28.3875 10.4624 28.7597 10.0275C29.5489 9.09024 30.4547 9.4445 31.2081 10.1485C31.7283 10.6373 32.1947 11.171 32.6745 11.7046C33.7373 12.884 34.809 14.0589 35.8942 15.2203C36.6117 15.9871 37.3247 16.7495 38.0602 17.4983C38.5624 18.0095 39.0736 18.5163 39.6028 19.0006C40.1947 19.5387 40.7328 20.2696 41.4189 19.467C42.2889 18.449 43.1185 17.3907 43.966 16.3504C44.7732 15.3638 45.5041 14.0051 46.7598 15.31C49.41 18.0678 52.3921 20.6329 55.2531 23.1531C56.4683 24.2248 57.7419 25.2697 58.9975 26.3011C59.3293 26.5746 60.0065 27.3818 60.4101 27.3907C57.5849 27.3235 54.7598 27.2517 51.9347 27.1845C48.7239 27.1037 45.9167 27.5701 42.9391 28.745V28.7495Z" fill="#E06E26"/>
    <path d="M67.804 28.6959C67.8802 29.382 67.0372 28.9918 66.6336 28.9515C64.1448 28.7048 61.3466 28.0367 58.8577 27.947C40.8756 27.2833 29.5302 42.7363 9.66016 36.1757C4.90677 34.6062 -0.985644 30.3506 0.139923 24.6689C8.36867 34.4403 22.4764 35.243 33.9832 31.6331C37.8352 30.4223 41.4092 28.3371 45.3016 27.225C52.7546 25.0994 60.6694 25.6869 67.7995 28.7003L67.804 28.6959Z" fill="#0D90B7"/>
    <path d="M69.9902 32.2872C70.0754 32.9419 69.1651 32.6415 68.757 32.6056C61.7032 31.9419 56.6045 31.4576 49.5955 33.2827C41.7345 35.3321 34.0169 40.3141 25.7344 39.5922L33.6044 37.4083C45.304 32.2738 57.2099 26.8208 69.9902 32.2872Z" fill="#0D90B7"/>
  </g>
</svg>
